<svg width="75" height="92" viewBox="0 0 75 92" fill="none" xmlns="http://www.w3.org/2000/svg">
<path d="M66.6667 54.1667V70.8333H58.3333V54.1667H66.6667ZM16.6667 54.1667V70.8333H12.5C10.2083 70.8333 8.33333 68.9583 8.33333 66.6667V54.1667H16.6667ZM37.5 0C16.7917 0 0 16.7917 0 37.5V66.6667C0 73.5833 5.58333 79.1667 12.5 79.1667H25V45.8333H8.33333V37.5C8.33333 21.375 21.375 8.33333 37.5 8.33333C53.625 8.33333 66.6667 21.375 66.6667 37.5V45.8333H50V79.1667H66.6667V83.3333H37.5V91.6667H62.5C69.4167 91.6667 75 86.0833 75 79.1667V37.5C75 16.7917 58.2083 0 37.5 0Z" fill="#3077C6"/>
</svg>
