<svg width="96" height="40" viewBox="0 0 96 40" fill="none" xmlns="http://www.w3.org/2000/svg">
<path d="M25.6101 15.6101V9.38992H19.3899L15 5L10.6101 9.38992H4.38992V15.6101L0 20L4.38992 24.3899V30.6101H10.6101L15 35L19.3899 30.6101H25.6101V24.3899L30 20L25.6101 15.6101ZM15 27.9576C13.8196 27.9576 12.6923 27.6923 11.6844 27.2281C14.4164 25.9682 16.3263 23.2096 16.3263 20C16.3263 16.7905 14.4164 14.0318 11.6844 12.7719C12.6923 12.3077 13.8196 12.0424 15 12.0424C19.3899 12.0424 22.9576 15.6101 22.9576 20C22.9576 24.3899 19.3899 27.9576 15 27.9576Z" fill="white"/>
<path d="M76 0C64.96 0 56 8.96 56 20C56 31.04 64.96 40 76 40C87.04 40 96 31.04 96 20C96 8.96 87.04 0 76 0ZM76 6C79.32 6 82 8.68 82 12C82 15.32 79.32 18 76 18C72.68 18 70 15.32 70 12C70 8.68 72.68 6 76 6ZM76 34.4C71 34.4 66.58 31.84 64 27.96C64.06 23.98 72 21.8 76 21.8C79.98 21.8 87.94 23.98 88 27.96C85.42 31.84 81 34.4 76 34.4Z" fill="white"/>
</svg>
